<?xml version="1.0" encoding="UTF-8"?>
<svg id="Layer_1" data-name="Layer 1" xmlns="http://www.w3.org/2000/svg" viewBox="0 0 1434.44 1002.89">
  <defs>
    <style>
      .cls-1 {
        fill: none;
        stroke: #000;
        stroke-miterlimit: 10;
      }
    </style>
  </defs>
  <path class="cls-1" d="M368.97,400.3c175.56-57.7,334.08-166.24,451.36-309.05,5.38-6.55,10.98-14.09,10.31-22.54-1.48-18.61-27.82-21.08-46.06-17.08-135.97,29.79-260.27,110.09-343.31,221.8-15.61,20.99-29.94,50.19-15.06,71.7,7.44,10.76,20.38,16.15,32.82,20.21,78.74,25.69,167.8,21.05,239.05,63.28,8.99,5.33,18.04,11.92,21.87,21.64,6.17,15.64-3.17,32.83-12.94,46.52-43.73,61.32-102.29,110.34-161.59,156.76-116.02,90.81-237.51,174.43-360.51,255.54-57.43,37.87-116.54,75.8-183.19,92.86,159.75-153.4,345.09-277.15,529.34-400.03C831.63,401.44,1132.19,200.98,1432.76.52c-42.98.52-81.9,24.25-117.43,48.43-172.55,117.44-324.73,264.72-447.77,433.33-42.54,58.3-82.17,120.31-101.76,189.76-3.2,11.35-5.17,25.36,3.51,33.35,5.51,5.07,13.62,5.89,21.11,5.94,22.51.13,45.04-4.52,65.65-13.57"/>
  <path class="cls-1" d="M881.88,461.06c38.03,9.72,76.46-11.64,109.42-32.95,151.91-98.23,292.04-213.36,431.8-328.21-62.46,48.49-113.1,112.08-146.38,183.81-18.77,40.47-32.23,85.12-26.4,129.35s34.68,87.51,77.55,99.84"/>
</svg>